<svg width="256" height="256" viewBox="0 0 256 256" fill="none" xmlns="http://www.w3.org/2000/svg">
<circle cx="128" cy="128" r="100" fill="#F99A40"/>
<path d="M217 126C217 181.228 177.967 230.5 125.5 230.5C73.0329 230.5 28 183.228 28 128C28 72.7715 73.0329 25 125.5 25C177.967 25 217 70.7715 217 126Z" fill="#FF8714"/>
<ellipse cx="95" cy="98.5" rx="19" ry="19.5" fill="#F99A40"/>
<ellipse cx="95" cy="93" rx="19" ry="21" fill="#D9D9D9"/>
<circle cx="106.5" cy="92.5" r="7.5" fill="#F99A40"/>
<ellipse cx="156" cy="98.5" rx="19" ry="19.5" fill="#F99A40"/>
<ellipse cx="156" cy="93" rx="19" ry="21" fill="#D9D9D9"/>
<circle cx="167.5" cy="92.5" r="7.5" fill="#F99A40"/>
<path d="M200.108 53.9796C199.519 49.2089 203.241 45 208.048 45H227.952C232.759 45 236.481 49.2089 235.892 53.9796L229.723 103.98C229.229 107.989 225.823 111 221.783 111H214.216C210.177 111 206.771 107.989 206.277 103.98L200.108 53.9796Z" fill="#D44C29"/>
<circle cx="218" cy="137" r="16" fill="#D44C29"/>
</svg>
